<?xml version="1.0" encoding="utf-8"?>
<!-- Generator: Adobe Illustrator 27.6.1, SVG Export Plug-In . SVG Version: 6.00 Build 0)  -->
<svg version="1.1" id="Layer_1" xmlns="http://www.w3.org/2000/svg" xmlns:xlink="http://www.w3.org/1999/xlink" x="0px" y="0px"
	 viewBox="0 0 494.9 98.6" style="enable-background:new 0 0 494.9 98.6;" xml:space="preserve">
<style type="text/css">
	.st0{fill:#5C5C5C;}
	.st1{fill:#F15A29;}
</style>
<path class="st0" d="M53.4,18.7v62.7H38V57H15.3v24.4H0V18.7h15.3v23.8H38V18.7H53.4z"/>
<path class="st0" d="M104.4,53.1v28.2H89.9v-4.2c-2.4,3.5-7.8,5.4-12.4,5.4c-6.1,0-15.5-2.3-15.5-13.3c0-15,19.5-15,22.6-15
	c2.1,0,4.4,0,5.4,0v-0.2c0-4.3-2.1-7.3-7.4-7.3c-3.7,0-6.8,1.4-8.6,2.9L64.4,43c4.9-5.2,11.7-8.1,20.4-8.1
	C99.3,34.9,104.4,42.3,104.4,53.1z M89.9,61.4c-0.4,0-0.8,0-1.2,0c-7.2,0-12.1,1.3-12.1,5.9c0,3.3,2.7,4.6,5.8,4.6s6.2-1.5,7.4-3.2
	V61.4z"/>
<path class="st0" d="M157.9,52.9v28.4h-14.6V56.9c0-5.2-3.2-7.8-7.2-7.8c-4.2,0-7.2,2.8-7.2,7.8v24.4h-14.5V35.9h14.5v4.2
	c2.6-3,6.5-5.3,12.5-5.3C152.5,34.9,157.9,43.8,157.9,52.9z"/>
<path class="st0" d="M214.1,18.7v62.7h-14.5v-4.4c-2.7,3.2-6.7,5.5-12.8,5.5c-14.1,0-21.8-11.9-21.8-23.8s7.6-23.8,21.8-23.8
	c6.1,0,10.1,2.3,12.8,5.5V18.6L214.1,18.7L214.1,18.7z M199.1,58.7c0-6.1-4.3-9.8-9.8-9.8c-6,0-9.7,4.1-9.7,9.8
	c0,5.5,3.7,9.7,9.7,9.7C194.8,68.4,199.1,64.7,199.1,58.7z"/>
<path class="st0" d="M269.2,35.9l-24.9,62.7h-14.8l8.3-20l-18-42.7h15.4l9.1,25.9l9.3-25.9H269.2z"/>
<path class="st1" d="M302.8,81.3h-15.3V35.8h15.3V81.3z"/>
<path class="st1" d="M361.2,58.7c0,13.4-10.1,23.8-24.4,23.8c-14.1,0-24.4-10.4-24.4-23.8c0-13.5,10.2-23.8,24.4-23.8
	C351.1,34.9,361.2,45.2,361.2,58.7z M346.7,58.7c0-5.3-3.9-9.8-9.8-9.8c-5.8,0-9.7,4.5-9.7,9.8s3.9,9.7,9.7,9.7
	C342.8,68.4,346.7,64,346.7,58.7z"/>
<path class="st1" d="M416.4,58.7c0,13.4-10.1,23.8-24.4,23.8c-14.1,0-24.4-10.4-24.4-23.8c0-13.5,10.2-23.8,24.4-23.8
	C406.3,34.9,416.4,45.2,416.4,58.7z M401.8,58.7c0-5.3-3.9-9.8-9.8-9.8c-5.8,0-9.7,4.5-9.7,9.8s3.9,9.7,9.7,9.7
	C398,68.4,401.8,64,401.8,58.7z"/>
<path class="st1" d="M439,18.7v62.7h-14.6V18.7H439z"/>
<path class="st1" d="M494.9,35.9L470,98.6h-14.8l8.3-20l-18-42.7H461l9.1,25.9l9.3-25.9H494.9z"/>
<g>
	<path class="st0" d="M262,13.7c-4,3.8-7,8.4-9.2,13.4c-0.3,0.7-0.9,1.5,0.1,2.2c1,0.6,1.4-0.1,1.9-0.6c5.5-4.8,11.4-8.8,18.6-10.5
		c3.5-0.8,7.1-0.6,10.6,0c2.3,0.4,3.6,2.1,3.6,4.8c0,3,0,9.7,0,9.7h15.5c0,0,0-5.1,0-7.7c0.1-4.9,4.8-7.4,9-4.9
		c1.1,0.7,1.7,1.7,1.9,2.9c0.2,1.3,0.8,1.6,2,1.6c3.8-0.1,7.5,0,11.2,0c1.6,0,2.4-0.7,2.4-2.2c0-6.2,0-12.4,0-18.6
		c0-1.5-0.7-2.2-2.2-2.2c-3.9,0-7.9,0-11.8,0c-0.9,0-1.5,0.3-1.7,1.3c-0.6,2.4-2.5,3.7-5,3.8c-3,0.1-4.7-1-5.6-3.6
		c-0.3-1-0.8-1.5-1.9-1.5c-4.5,0-9.1-0.2-13.6,0c-7.1,0.5-13.5,2.9-19.5,6.8C266,9.9,263.9,11.7,262,13.7z"/>
</g>
</svg>
